<svg aria-hidden="true" style="position: absolute; width: 0; height: 0; overflow: hidden;" version="1.1" xmlns="http://www.w3.org/2000/svg" xmlns:xlink="http://www.w3.org/1999/xlink">
<defs>
<symbol id="icon-logo_1" viewBox="0 0 35 32">
<path d="M9.717 14.961c0.001 0.016 0.002 0.034 0.002 0.052 0 0.134-0.033 0.26-0.091 0.371l0.002-0.004c-0.057 0.135-0.111 0.254-0.158 0.361l-0.462 0.49-0.273 0.822c-0.094 0.069-0.207 0.145-0.323 0.217l-0.023 0.013c-0.116 0.067-0.222 0.14-0.318 0.217-0.107 0.088-0.201 0.182-0.286 0.285l-0.003 0.004c-0.076 0.106-0.163 0.197-0.259 0.274-0.1 0.079-0.214 0.146-0.336 0.198l-0.010 0.004c-0.133 0.051-0.247 0.109-0.354 0.177l0.008-0.005c-0.192 0.116-0.375 0.236-0.548 0.361-0.163 0.125-0.336 0.245-0.519 0.361-0.045 0.017-0.083 0.041-0.115 0.072l0-0c-0.029 0.024-0.062 0.044-0.099 0.057l-0.002 0.001c-0.029 0.020-0.154 0.058-0.375 0.116s-0.467 0.126-0.736 0.203c-0.259 0.067-0.505 0.13-0.735 0.187s-0.361 0.086-0.39 0.086c-0.172 0.020-0.351 0.030-0.533 0.030s-0.366 0.005-0.548 0.014l-0.217 0.13c-0.099-0.073-0.212-0.145-0.33-0.209l-0.016-0.008c-0.121-0.064-0.225-0.136-0.32-0.218l0.002 0.002c-0.102-0.092-0.196-0.186-0.285-0.285l-0.003-0.003c-0.096-0.116-0.183-0.222-0.26-0.318-0.086-0.251-0.134-0.38-0.184-0.508l0.041 0.118c-0.039-0.102-0.078-0.232-0.11-0.365l-0.005-0.024-0.073-0.548c-0.056-0.599-0.077-0.782-0.097-0.965l0.040 0.431c-0.010-0.174-0.025-0.351-0.043-0.534 0.164-0.451 0.308-0.904 0.432-1.355 0.135-0.462 0.299-0.914 0.491-1.356 0.048-0.106 0.091-0.212 0.13-0.318 0.048-0.115 0.097-0.226 0.144-0.332 0.057-0.115 0.121-0.222 0.188-0.318 0.067-0.105 0.125-0.211 0.172-0.317 0.049-0.115 0.087-0.231 0.116-0.346 0.029-0.125 0.067-0.24 0.115-0.346 0.030-0.057 0.078-0.139 0.145-0.245 0.085-0.147 0.157-0.26 0.231-0.371l-0.015 0.024c0.077-0.125 0.149-0.245 0.217-0.361 0.077-0.115 0.139-0.206 0.187-0.273 0.077-0.096 0.154-0.188 0.231-0.274s0.139-0.183 0.187-0.289c0.096-0.163 0.188-0.369 0.274-0.62 0.088-0.258 0.186-0.477 0.3-0.685l-0.011 0.022c0.123-0.224 0.257-0.418 0.408-0.596l-0.004 0.005c0.164-0.193 0.312-0.39 0.447-0.592 0.144-0.202 0.284-0.423 0.418-0.663l0.634-0.462 0.289 0.289 0.692-0.115 0.433 0.648c-0.036 0.278-0.061 0.445-0.089 0.612l0.016-0.121c-0.020 0.183-0.039 0.37-0.057 0.562l-0.030 0.548c0 0.173 0.010 0.327 0.030 0.462-0.048 0.172-0.121 0.355-0.217 0.548-0.085 0.182-0.187 0.338-0.306 0.479l0.003-0.003-0.057 0.78-0.577 0.519-0.072 0.735-0.49 0.578-0.087 0.418c-0.032 0.151-0.072 0.281-0.121 0.407l0.006-0.018c-0.062 0.148-0.12 0.267-0.184 0.382l0.011-0.021c-0.067 0.115-0.135 0.236-0.202 0.36-0.193 0.164-0.39 0.346-0.592 0.548-0.189 0.188-0.368 0.386-0.537 0.592l-0.011 0.014c-0.083 0.102-0.164 0.215-0.238 0.333l-0.008 0.014c-0.067 0.115-0.139 0.226-0.217 0.331-0.249 0.318-0.519 0.615-0.807 0.894s-0.572 0.568-0.851 0.866l0.318 0.562c0.202 0.067 0.409 0.13 0.62 0.188s0.423 0.111 0.634 0.158c0.096-0.019 0.207-0.039 0.332-0.057 0.126-0.029 0.254-0.057 0.39-0.086 0.135-0.039 0.264-0.077 0.39-0.116 0.135-0.039 0.245-0.077 0.332-0.115 0.192-0.078 0.414-0.189 0.663-0.332 0.25-0.154 0.462-0.289 0.635-0.404 0.308-0.193 0.62-0.39 0.937-0.591 0.318-0.203 0.62-0.414 0.909-0.635 0.192-0.144 0.394-0.327 0.606-0.548l0.591-0.62c0.193-0.202 0.361-0.365 0.505-0.491 0.154-0.125 0.26-0.172 0.318-0.144zM5.794 8.139c-0.203 0.336-0.418 0.664-0.649 0.98-0.222 0.308-0.428 0.63-0.62 0.967-0.067 0.115-0.126 0.236-0.173 0.361-0.048 0.115-0.111 0.23-0.188 0.345-0.067 0.107-0.139 0.212-0.216 0.318s-0.144 0.222-0.203 0.346c-0.115 0.222-0.222 0.457-0.317 0.706-0.087 0.24-0.183 0.476-0.289 0.706-0.115 0.231-0.25 0.447-0.404 0.65-0.145 0.188-0.283 0.4-0.405 0.622l-0.013 0.026-0.231 0.462c-0.017 0.044-0.036 0.082-0.059 0.117l0.002-0.003c-0.025 0.029-0.044 0.063-0.057 0.1l-0.001 0.002c-0.039 0.106-0.058 0.222-0.058 0.346 0 0.002 0 0.003 0 0.005 0 0.247-0.064 0.479-0.176 0.68l0.004-0.007c-0.058 0.106-0.112 0.212-0.159 0.318-0.044 0.093-0.083 0.204-0.112 0.318l-0.003 0.013c-0.037 0.136-0.072 0.242-0.111 0.345l0.009-0.028c0.077-0.077 0.158-0.144 0.245-0.203 0.096-0.067 0.187-0.14 0.274-0.216 0.086-0.087 0.168-0.178 0.245-0.274s0.163-0.183 0.259-0.26c0.087-0.076 0.178-0.144 0.274-0.202 0.106-0.067 0.207-0.135 0.304-0.202 0.138-0.187 0.271-0.399 0.389-0.62l0.014-0.028c0.057-0.107 0.107-0.226 0.144-0.361 0.048-0.135 0.107-0.254 0.173-0.361 0.057-0.106 0.13-0.207 0.217-0.303 0.096-0.096 0.178-0.197 0.245-0.303 0.076-0.106 0.139-0.217 0.187-0.332 0.057-0.115 0.121-0.226 0.188-0.332 0.135-0.211 0.283-0.414 0.447-0.606l0.071-0.908 0.519-0.606 0.072-0.548 0.361-0.505 0.043-0.807-0.245-0.722zM17.664 15.163c0.014 0.042 0.023 0.091 0.023 0.141 0 0.086-0.024 0.167-0.066 0.236l0.001-0.002c-0.075 0.103-0.166 0.19-0.27 0.258l-0.004 0.002c-0.104 0.076-0.222 0.148-0.346 0.21l-0.015 0.007c-0.125 0.057-0.231 0.125-0.318 0.202-0.432 0.096-0.826 0.168-1.182 0.216-0.346 0.039-0.73 0.092-1.154 0.159-0.054 0.009-0.117 0.014-0.181 0.014s-0.126-0.005-0.187-0.015l0.007 0.001c-0.106-0.029-0.216-0.039-0.332-0.029h-0.188c-0.026-0.005-0.056-0.007-0.086-0.007s-0.060 0.003-0.089 0.008l0.003-0c-0.222 0.019-0.366 0.096-0.433 0.23-0.068 0.128-0.127 0.277-0.169 0.433l-0.003 0.015c-0.039 0.163-0.092 0.322-0.159 0.476-0.057 0.144-0.188 0.245-0.39 0.303-0.007 0.015-0.012 0.034-0.012 0.053 0 0.029 0.010 0.056 0.027 0.077l-0-0c0.031 0.030 0.060 0.063 0.085 0.099l0.001 0.002c-0.163 0.048-0.274 0.135-0.332 0.26-0.035 0.083-0.079 0.208-0.119 0.334l-0.011 0.041c-0.036 0.122-0.096 0.228-0.174 0.318l0.001-0.001c-0.067 0.087-0.202 0.116-0.404 0.087-0.294 0.312-0.643 0.568-1.033 0.755l-0.021 0.009c-0.364 0.188-0.787 0.325-1.234 0.387l-0.021 0.002c-0.088-0.045-0.164-0.093-0.234-0.147l0.004 0.003c-0.064-0.055-0.135-0.107-0.209-0.154l-0.007-0.004c-0.066-0.047-0.142-0.086-0.224-0.113l-0.006-0.002c-0.041-0.009-0.089-0.015-0.137-0.015s-0.096 0.005-0.142 0.015l0.004-0.001c-0.008-0.204-0.050-0.397-0.119-0.575l0.004 0.012c-0.084-0.187-0.181-0.349-0.293-0.497l0.005 0.006c-0.020-0.172 0.005-0.331 0.072-0.476 0.057-0.154 0.12-0.304 0.187-0.447 0.056-0.114 0.114-0.257 0.165-0.404l0.009-0.029c0.014-0.062 0.022-0.134 0.022-0.208 0-0.111-0.019-0.219-0.053-0.318l0.002 0.007c0.084-0.044 0.149-0.114 0.187-0.199l0.001-0.003c0.035-0.067 0.060-0.145 0.071-0.227l0-0.004c0.020-0.087 0.043-0.164 0.072-0.231 0.029-0.076 0.097-0.14 0.202-0.187-0.076-0.231-0.067-0.399 0.030-0.505 0.105-0.116 0.23-0.217 0.375-0.304 0.144-0.086 0.279-0.182 0.404-0.288s0.172-0.264 0.144-0.476c0.058-0.057 0.124-0.105 0.197-0.142l0.004-0.002c0.076-0.039 0.149-0.072 0.216-0.101 0.077-0.039 0.149-0.077 0.217-0.115 0.073-0.043 0.135-0.096 0.187-0.158l0.001-0.001c-0.067-0.048-0.102-0.096-0.102-0.144 0.010-0.048 0.025-0.096 0.043-0.144l0.057-0.172c0.014-0.025 0.022-0.055 0.022-0.087s-0.008-0.062-0.022-0.088l0 0.001c0.26 0.038 0.486 0.004 0.679-0.101 0.202-0.116 0.389-0.231 0.562-0.346 0.183-0.116 0.366-0.197 0.548-0.246 0.183-0.048 0.394 0.011 0.635 0.174l0.086 0.303c0.048 0.125 0.091 0.254 0.13 0.389 0.048 0.135 0.092 0.265 0.13 0.39s0.062 0.217 0.071 0.274v1.154c0.279 0.163 0.558 0.264 0.837 0.303 0.279 0.029 0.558-0.039 0.837-0.203 0.105 0.097 0.207 0.126 0.303 0.087 0.096-0.048 0.187-0.101 0.274-0.159 0.082-0.052 0.181-0.084 0.287-0.086h0.001c0.096-0.010 0.193 0.067 0.289 0.231 0.112-0.111 0.254-0.192 0.413-0.229l0.006-0.001c0.144-0.039 0.293-0.057 0.447-0.057 0.153-0.010 0.303-0.025 0.446-0.043 0.154-0.019 0.304-0.082 0.447-0.188zM12.126 15.409c0-0.145 0.025-0.299 0.072-0.462s0.087-0.322 0.115-0.476c0.030-0.164 0.025-0.318-0.014-0.462-0.029-0.144-0.12-0.274-0.274-0.389-0.107 0.059-0.194 0.142-0.258 0.242l-0.002 0.003c-0.067 0.097-0.135 0.197-0.202 0.304-0.068 0.096-0.15 0.177-0.243 0.242l-0.003 0.002c-0.085 0.067-0.201 0.087-0.345 0.057-0.049 0.116-0.049 0.213 0 0.289 0.048 0.067 0.105 0.135 0.172 0.202 0.067 0.057 0.13 0.121 0.188 0.188 0.067 0.067 0.090 0.153 0.071 0.259 0.039 0.029 0.092 0.057 0.159 0.087 0.067 0.019 0.135 0.033 0.202 0.043 0.002 0 0.004 0 0.006 0 0.075 0 0.147-0.011 0.216-0.030l-0.006 0.001c0.061-0.014 0.112-0.051 0.144-0.1l0.001-0.001zM12.025 16.562c-0.192 0-0.361-0.043-0.505-0.13-0.167-0.12-0.304-0.224-0.437-0.331l0.019 0.014c-0.135-0.116-0.279-0.222-0.432-0.318-0.149-0.106-0.332-0.175-0.53-0.188l-0.003-0c-0.087 0.116-0.188 0.226-0.304 0.332-0.115 0.096-0.216 0.202-0.303 0.317s-0.149 0.24-0.187 0.375c-0.029 0.135-0.005 0.289 0.072 0.462-0.222 0.106-0.37 0.259-0.447 0.461-0.075 0.185-0.131 0.399-0.158 0.623l-0.001 0.012-0.057 0.692c-0.019 0.23-0.082 0.437-0.187 0.62l0.317-0.217c0.038 0.019 0.068 0.048 0.086 0.085l0.001 0.001c0.029 0.039 0.033 0.082 0.014 0.13 0.072-0.073 0.159-0.132 0.255-0.171l0.005-0.002c0.096-0.048 0.192-0.082 0.288-0.101 0.069-0.021 0.171-0.046 0.275-0.067l0.029-0.005c0.105-0.020 0.206-0.048 0.302-0.087 0.24 0.135 0.414 0.164 0.519 0.087s0.193-0.193 0.26-0.346c0.067-0.154 0.139-0.313 0.216-0.476 0.065-0.161 0.203-0.28 0.372-0.317l0.003-0.001-0.102-0.101c0.164-0.202 0.308-0.409 0.433-0.62 0.135-0.222 0.197-0.466 0.187-0.735zM26.188 15.568c-0.101 0.128-0.184 0.276-0.242 0.436l-0.003 0.011c-0.057 0.163-0.13 0.317-0.216 0.461-0.077 0.144-0.179 0.264-0.301 0.359l-0.003 0.002c-0.115 0.096-0.279 0.14-0.49 0.13-0.154 0.058-0.276 0.17-0.345 0.313l-0.002 0.004c-0.016 0.022-0.084 0.169-0.15 0.317l-0.052 0.13c-0.065 0.141-0.152 0.261-0.259 0.36l-0.001 0.001c-0.106 0.086-0.264 0.096-0.476 0.029-0.269 0.115-0.514 0.269-0.735 0.462-0.212 0.182-0.414 0.375-0.606 0.577-0.079 0.080-0.155 0.165-0.226 0.253l-0.005 0.007c-0.071 0.083-0.152 0.154-0.241 0.214l-0.004 0.003c-0.032 0.020-0.072 0.033-0.114 0.033-0.032 0-0.062-0.007-0.089-0.019l0.001 0.001c-0.085-0.036-0.147-0.065-0.207-0.095l0.020 0.009c-0.048-0.035-0.108-0.056-0.173-0.057h-0c-0.048 0-0.091 0.043-0.13 0.13 0.067 0.135 0.082 0.226 0.043 0.274-0.046 0.062-0.11 0.108-0.185 0.129l-0.002 0.001c-0.073 0.026-0.165 0.050-0.259 0.070l-0.015 0.003c-0.088 0.015-0.166 0.051-0.232 0.102l0.001-0.001c-0.113 0.103-0.198 0.234-0.244 0.383l-0.002 0.006c-0.048 0.154-0.090 0.308-0.129 0.462-0.041 0.164-0.101 0.308-0.177 0.441l0.004-0.008c-0.073 0.149-0.194 0.265-0.342 0.331l-0.004 0.002c0.096 0.067 0.135 0.135 0.115 0.202-0.012 0.076-0.037 0.144-0.074 0.204l0.001-0.003c-0.032 0.061-0.061 0.132-0.084 0.207l-0.002 0.009c-0.010 0.067 0.029 0.135 0.115 0.203-0.137 0.172-0.266 0.366-0.378 0.569l-0.011 0.022-0.318 0.635c-0.106 0.222-0.222 0.432-0.345 0.634-0.116 0.212-0.265 0.399-0.447 0.563l0.043 0.346c-0.144-0.039-0.235-0.034-0.274 0.014-0.027 0.052-0.043 0.114-0.043 0.18 0 0.008 0 0.016 0.001 0.023l-0-0.001v0.26c0.009 0.096-0.020 0.168-0.087 0.216-0.026 0.036-0.060 0.066-0.099 0.086l-0.002 0.001c-0.032 0.022-0.060 0.046-0.086 0.072l-0 0c-0.295 0.217-0.516 0.518-0.632 0.867l-0.004 0.012c-0.017 0.048-0.032 0.106-0.043 0.165l-0.001 0.007c-0.009 0.058-0.024 0.121-0.043 0.189-0.061 0.16-0.139 0.298-0.234 0.422l0.003-0.004c-0.106 0.144-0.222 0.293-0.345 0.446-0.126 0.154-0.246 0.312-0.361 0.476-0.102 0.15-0.194 0.321-0.268 0.501l-0.007 0.018c-0.153-0.019-0.274-0.005-0.361 0.044-0.093 0.055-0.17 0.128-0.228 0.213l-0.002 0.002c-0.057 0.096-0.107 0.197-0.144 0.304-0.039 0.105-0.087 0.197-0.144 0.274-0.063 0.082-0.146 0.146-0.241 0.186l-0.004 0.001c-0.106 0.048-0.24 0.048-0.404 0l-0.649 0.591c-0.059-0.040-0.131-0.063-0.209-0.063-0.044 0-0.086 0.008-0.126 0.021l0.003-0.001c-0.127 0.043-0.236 0.096-0.337 0.162l0.006-0.004c-0.115 0.067-0.226 0.121-0.332 0.159-0.040 0.013-0.085 0.020-0.132 0.020-0.085 0-0.164-0.024-0.231-0.065l0.002 0.001c-0.067 0.077-0.125 0.115-0.172 0.115-0.049 0.010-0.107-0.029-0.173-0.115l-0.217 0.231c-0.122-0.1-0.259-0.191-0.405-0.268l-0.013-0.006c-0.182-0.081-0.338-0.173-0.483-0.279l0.007 0.005c-0.139-0.092-0.255-0.207-0.344-0.342l-0.003-0.004c-0.086-0.125-0.101-0.288-0.043-0.49-0.025-0.072-0.054-0.134-0.089-0.193l0.003 0.005c-0.045-0.062-0.084-0.133-0.113-0.209l-0.002-0.006c-0.027-0.063-0.048-0.136-0.057-0.213l-0-0.004c-0.001-0.010-0.002-0.021-0.002-0.032 0-0.060 0.023-0.114 0.060-0.156l-0 0c-0.087-0.163-0.116-0.331-0.087-0.505 0.019-0.164 0.053-0.327 0.101-0.491s0.086-0.327 0.115-0.49c0.030-0.164 0-0.327-0.086-0.491 0.113-0.085 0.202-0.197 0.258-0.326l0.002-0.005c0.048-0.135 0.096-0.274 0.144-0.418 0.039-0.144 0.082-0.284 0.13-0.418 0.049-0.136 0.133-0.249 0.243-0.33l0.002-0.001-0.014-0.231c0.444-0.473 0.915-0.907 1.416-1.306l0.027-0.021c0.5-0.394 1.067-0.688 1.702-0.88 0.125-0.222 0.288-0.384 0.49-0.49 0.202-0.097 0.409-0.188 0.62-0.274 0.202-0.077 0.39-0.178 0.563-0.304 0.172-0.115 0.303-0.303 0.39-0.562 0.048 0.106 0.096 0.149 0.144 0.13 0.056-0.013 0.104-0.038 0.145-0.073l-0 0c0.057-0.029 0.111-0.052 0.158-0.072 0.048-0.009 0.097 0.034 0.144 0.13 0.096-0.289 0.25-0.519 0.462-0.692 0.222-0.173 0.461-0.327 0.721-0.462l0.807-0.375c0.269-0.115 0.505-0.259 0.706-0.432 0.212-0.173 0.37-0.385 0.476-0.634 0.107-0.26 0.13-0.592 0.072-0.995 0.080-0.050 0.141-0.125 0.172-0.214l0.001-0.003c0.026-0.083 0.046-0.181 0.057-0.282l0.001-0.007c0.020-0.096 0.044-0.182 0.072-0.259s0.092-0.13 0.188-0.158c-0.067-0.107-0.149-0.154-0.245-0.144s-0.197 0.039-0.304 0.086c-0.131 0.065-0.221 0.113-0.309 0.163l0.036-0.019c-0.086 0.048-0.158 0.057-0.217 0.029-0.019 0.122-0.088 0.224-0.185 0.288l-0.002 0.001c-0.087 0.057-0.183 0.111-0.289 0.158-0.106 0.039-0.217 0.082-0.331 0.13s-0.209 0.128-0.273 0.229l-0.001 0.002c-0.087-0.039-0.168-0.020-0.245 0.057-0.067 0.067-0.14 0.144-0.217 0.231-0.062 0.073-0.139 0.131-0.226 0.171l-0.004 0.002c-0.087 0.039-0.189 0-0.304-0.115-0.046 0.141-0.151 0.251-0.285 0.302l-0.003 0.001c-0.12 0.046-0.258 0.072-0.403 0.072-0.006 0-0.011-0-0.017-0h0.001c-0.154 0-0.313-0.010-0.476-0.030-0.050-0.008-0.109-0.012-0.168-0.012-0.089 0-0.175 0.010-0.259 0.028l0.008-0.001-0.245-0.245c-0.018 0.047-0.048 0.086-0.086 0.114l-0.001 0c-0.024 0.016-0.054 0.026-0.086 0.026-0.021 0-0.041-0.004-0.059-0.012l0.001 0c-0.063-0.129-0.136-0.3-0.202-0.475l-0.015-0.044c-0.069-0.164-0.12-0.354-0.143-0.552l-0.001-0.010c-0.009-0.055-0.015-0.119-0.015-0.185 0-0.13 0.021-0.255 0.061-0.372l-0.002 0.008c0.057-0.183 0.173-0.341 0.346-0.476 0.255-0.473 0.611-0.861 1.041-1.146l0.012-0.007c0.034 0.028 0.077 0.046 0.125 0.046 0.012 0 0.024-0.001 0.035-0.003l-0.001 0c0.068-0.023 0.125-0.047 0.18-0.075l-0.007 0.003c0.067-0.039 0.13-0.077 0.188-0.116 0.043-0.040 0.097-0.070 0.156-0.086l0.003-0.001c0.030-0.105 0.082-0.207 0.159-0.303 0.086-0.096 0.177-0.182 0.274-0.259 0.106-0.077 0.212-0.144 0.317-0.202 0.116-0.067 0.222-0.126 0.318-0.173 0.183-0.087 0.351-0.193 0.505-0.318 0.164-0.135 0.327-0.259 0.491-0.375 0.164-0.125 0.331-0.231 0.505-0.318 0.166-0.082 0.361-0.13 0.567-0.13 0.008 0 0.016 0 0.025 0l-0.001-0 0.26 0.231c-0.163 0.097-0.308 0.217-0.432 0.361-0.115 0.135-0.235 0.274-0.361 0.418-0.125 0.134-0.256 0.257-0.396 0.369l-0.007 0.006c-0.149 0.115-0.329 0.197-0.527 0.229l-0.007 0.001c-0.173 0.337-0.409 0.626-0.706 0.866-0.289 0.23-0.587 0.446-0.894 0.648 0 0.007 0.001 0.015 0.001 0.023 0 0.126-0.050 0.24-0.13 0.324l0-0c-0.088 0.088-0.188 0.164-0.297 0.228l-0.007 0.004c-0.115 0.067-0.23 0.13-0.345 0.187-0.114 0.047-0.211 0.115-0.288 0.201l-0.001 0.001c-0.063 0.076-0.101 0.175-0.101 0.282 0 0.008 0 0.015 0.001 0.023l-0-0.001c0 0.115 0.062 0.269 0.188 0.461 0.115-0.057 0.254-0.096 0.418-0.115 0.162-0.020 0.322-0.044 0.476-0.072 0.153-0.039 0.287-0.092 0.404-0.159 0.125-0.079 0.217-0.2 0.258-0.342l0.001-0.004c0.135-0.115 0.279-0.187 0.432-0.216s0.313-0.034 0.476-0.015c0.318-0.346 0.635-0.664 0.952-0.952 0.327-0.298 0.635-0.601 0.924-0.909s0.552-0.634 0.793-0.98c0.25-0.355 0.467-0.764 0.649-1.226 0.056-0.020 0.121-0.032 0.189-0.032 0.124 0 0.238 0.039 0.333 0.105l-0.002-0.001c0.154 0.106 0.264 0.24 0.331 0.404-0.019 0.115-0.052 0.226-0.101 0.332l-0.115 0.289c-0.027 0.079-0.052 0.176-0.070 0.275l-0.002 0.013c-0.010 0.107 0.010 0.226 0.057 0.361-0.077-0.020-0.14 0.005-0.187 0.072-0.038 0.066-0.081 0.122-0.131 0.172l0-0c0.012 0.045 0.019 0.097 0.019 0.15 0 0.070-0.012 0.138-0.034 0.201l0.001-0.004c-0.046 0.112-0.094 0.207-0.149 0.297l0.005-0.009c-0.057 0.087-0.111 0.183-0.158 0.289-0.025 0.068-0.039 0.146-0.039 0.228 0 0.042 0.004 0.082 0.011 0.122l-0.001-0.004c-0.126 0.228-0.23 0.492-0.299 0.77l-0.005 0.023c-0.057 0.27-0.096 0.544-0.115 0.822l0.259 0.231c0.125-0.183 0.279-0.313 0.462-0.39 0.192-0.077 0.384-0.14 0.577-0.188 0.192-0.057 0.38-0.12 0.562-0.187 0.183-0.077 0.341-0.207 0.476-0.39 0.057-0.279 0.178-0.476 0.361-0.591 0.183-0.126 0.375-0.231 0.577-0.318s0.394-0.183 0.577-0.289c0.192-0.115 0.327-0.298 0.404-0.548h0.361c-0.020 0.048-0.010 0.092 0.029 0.13l0.101 0.101zM18.213 21.957c-0.097 0.057-0.203 0.11-0.318 0.158s-0.231 0.101-0.346 0.159c-0.115 0.057-0.222 0.125-0.318 0.202-0.094 0.075-0.168 0.172-0.215 0.283l-0.002 0.005c-0.047-0.029-0.103-0.047-0.164-0.047-0.051 0-0.098 0.012-0.141 0.034l0.002-0.001c-0.086 0.057-0.172 0.12-0.259 0.187-0.079 0.072-0.17 0.134-0.267 0.185l-0.007 0.003c-0.087 0.048-0.183 0.043-0.289-0.015-0.182 0.115-0.355 0.24-0.519 0.375-0.172 0.135-0.346 0.264-0.519 0.39-0.155 0.122-0.329 0.242-0.511 0.349l-0.022 0.012c-0.193 0.115-0.395 0.201-0.607 0.259-0.103 0.169-0.244 0.306-0.412 0.401l-0.006 0.003c-0.172 0.106-0.346 0.207-0.519 0.303-0.187 0.099-0.348 0.214-0.491 0.348l0.001-0.001c-0.144 0.135-0.236 0.322-0.274 0.562-0.299 0.193-0.501 0.438-0.606 0.736-0.115 0.308-0.177 0.629-0.187 0.967-0.010 0.345 0.005 0.692 0.043 1.038 0.038 0.356 0.057 0.678 0.057 0.967 0.125 0.144 0.25 0.245 0.375 0.303s0.254 0.086 0.39 0.086c0.135 0 0.274-0.019 0.418-0.057 0.134-0.029 0.283-0.057 0.446-0.086 0.039-0.144 0.111-0.24 0.217-0.289 0.096-0.039 0.202-0.067 0.318-0.086 0.106-0.020 0.207-0.048 0.303-0.087 0.086-0.029 0.135-0.106 0.144-0.231l0.13 0.115c0.005-0.146 0.053-0.28 0.131-0.391l-0.002 0.002c0.077-0.096 0.168-0.188 0.274-0.274s0.222-0.168 0.346-0.245c0.115-0.077 0.217-0.164 0.303-0.259-0.005-0.030-0.007-0.064-0.007-0.098 0-0.135 0.040-0.261 0.11-0.366l-0.002 0.002c0.086-0.125 0.183-0.24 0.289-0.346s0.202-0.222 0.288-0.346c0.077-0.125 0.107-0.283 0.087-0.476 0.091-0.033 0.162-0.1 0.201-0.185l0.001-0.002c0.039-0.087 0.077-0.168 0.115-0.245 0.033-0.070 0.082-0.128 0.143-0.171l0.001-0.001c0.067-0.039 0.168-0.030 0.304 0.028-0.135-0.106-0.193-0.187-0.174-0.245 0.035-0.065 0.084-0.118 0.143-0.157l0.002-0.001c0.067-0.039 0.13-0.086 0.188-0.144s0.057-0.144 0-0.259c0.23-0.096 0.379-0.235 0.447-0.418s0.115-0.38 0.144-0.591c0.039-0.203 0.092-0.404 0.159-0.606 0.067-0.192 0.216-0.346 0.447-0.461-0.004-0.031-0.007-0.066-0.007-0.102 0-0.132 0.035-0.256 0.095-0.364l-0.002 0.004c0.087-0.125 0.168-0.245 0.245-0.361 0.086-0.115 0.144-0.235 0.172-0.36 0.039-0.125 0.006-0.274-0.1-0.447l-0.188 0.361zM35.16 15.163c0.014 0.042 0.022 0.090 0.022 0.14 0 0.087-0.024 0.168-0.067 0.237l0.001-0.002c-0.075 0.103-0.166 0.19-0.27 0.258l-0.004 0.002c-0.104 0.076-0.222 0.148-0.346 0.21l-0.015 0.007c-0.125 0.057-0.23 0.125-0.317 0.202-0.433 0.096-0.827 0.168-1.183 0.216-0.346 0.039-0.73 0.092-1.154 0.159-0.054 0.009-0.117 0.014-0.18 0.014s-0.126-0.005-0.187-0.015l0.007 0.001c-0.074-0.021-0.159-0.033-0.247-0.033-0.030 0-0.059 0.001-0.089 0.004l0.004-0h-0.187c-0.026-0.005-0.056-0.007-0.087-0.007s-0.061 0.003-0.090 0.008l0.003-0c-0.222 0.019-0.365 0.096-0.432 0.23-0.068 0.128-0.127 0.277-0.17 0.433l-0.003 0.015c-0.039 0.163-0.092 0.322-0.159 0.476-0.057 0.144-0.187 0.245-0.389 0.303-0.008 0.016-0.012 0.034-0.012 0.053 0 0.029 0.010 0.055 0.026 0.077l-0-0c0.032 0.030 0.060 0.063 0.086 0.099l0.001 0.002c-0.164 0.048-0.274 0.135-0.332 0.26-0.035 0.083-0.079 0.208-0.119 0.334l-0.011 0.041c-0.036 0.122-0.095 0.228-0.173 0.318l0.001-0.001c-0.068 0.087-0.203 0.116-0.404 0.087-0.294 0.312-0.643 0.568-1.032 0.755l-0.021 0.009c-0.364 0.188-0.787 0.325-1.235 0.387l-0.021 0.002c-0.088-0.045-0.163-0.093-0.233-0.147l0.004 0.003c-0.064-0.055-0.135-0.107-0.209-0.154l-0.007-0.004c-0.066-0.047-0.143-0.086-0.225-0.113l-0.006-0.002c-0.041-0.009-0.088-0.015-0.137-0.015s-0.096 0.005-0.141 0.015l0.004-0.001c-0.008-0.204-0.050-0.397-0.119-0.575l0.004 0.012c-0.084-0.187-0.181-0.349-0.293-0.497l0.005 0.006c-0.019-0.172 0.005-0.331 0.072-0.476 0.057-0.154 0.12-0.304 0.188-0.447 0.055-0.114 0.114-0.257 0.164-0.404l0.009-0.029c0.014-0.062 0.022-0.134 0.022-0.208 0-0.111-0.019-0.219-0.053-0.318l0.002 0.007c0.084-0.044 0.149-0.114 0.187-0.199l0.001-0.003c0.035-0.067 0.060-0.145 0.072-0.227l0-0.004c0.019-0.087 0.044-0.164 0.072-0.231 0.029-0.076 0.096-0.14 0.202-0.187-0.077-0.231-0.067-0.399 0.029-0.505 0.106-0.116 0.231-0.217 0.375-0.304s0.279-0.182 0.404-0.288c0.126-0.106 0.173-0.264 0.144-0.476 0.058-0.057 0.124-0.105 0.197-0.142l0.004-0.002c0.077-0.039 0.149-0.072 0.217-0.101 0.076-0.039 0.148-0.077 0.216-0.115 0.073-0.043 0.135-0.096 0.187-0.158l0.001-0.001c-0.067-0.048-0.101-0.096-0.101-0.144 0.010-0.048 0.025-0.096 0.044-0.144l0.057-0.172c0.014-0.025 0.022-0.055 0.022-0.087s-0.008-0.062-0.022-0.088l0 0.001c0.259 0.038 0.486 0.004 0.678-0.101 0.202-0.116 0.39-0.231 0.563-0.346 0.182-0.116 0.365-0.197 0.547-0.246 0.183-0.048 0.395 0.011 0.635 0.174l0.086 0.303c0.048 0.125 0.092 0.254 0.13 0.389 0.048 0.135 0.091 0.265 0.13 0.39s0.062 0.217 0.072 0.274v1.154c0.279 0.163 0.558 0.264 0.837 0.303 0.279 0.029 0.557-0.039 0.836-0.203 0.106 0.097 0.207 0.126 0.303 0.087 0.096-0.048 0.188-0.101 0.274-0.159 0.082-0.053 0.181-0.084 0.288-0.086h0c0.096-0.010 0.192 0.067 0.288 0.231 0.112-0.111 0.254-0.192 0.413-0.229l0.006-0.001c0.144-0.039 0.293-0.057 0.447-0.057 0.153-0.010 0.303-0.025 0.447-0.043 0.153-0.019 0.303-0.082 0.447-0.188zM29.621 15.409c0-0.145 0.024-0.299 0.071-0.462 0.049-0.164 0.087-0.322 0.116-0.476 0.029-0.164 0.025-0.318-0.014-0.462-0.030-0.144-0.121-0.274-0.274-0.389-0.107 0.059-0.195 0.142-0.258 0.242l-0.002 0.003c-0.067 0.097-0.135 0.197-0.202 0.304-0.068 0.096-0.149 0.177-0.242 0.242l-0.003 0.002c-0.086 0.067-0.202 0.087-0.346 0.057-0.048 0.116-0.048 0.213 0 0.289 0.048 0.067 0.107 0.135 0.173 0.202 0.067 0.057 0.13 0.121 0.188 0.188 0.067 0.067 0.091 0.153 0.072 0.259 0.039 0.029 0.091 0.057 0.158 0.087 0.067 0.019 0.135 0.033 0.202 0.043 0.002 0 0.004 0 0.007 0 0.075 0 0.147-0.011 0.216-0.030l-0.006 0.001c0.061-0.014 0.111-0.051 0.144-0.1l0.001-0.001zM29.52 16.562c-0.193 0-0.361-0.043-0.505-0.13-0.167-0.12-0.304-0.224-0.437-0.331l0.018 0.014c-0.134-0.116-0.279-0.222-0.432-0.318-0.149-0.106-0.332-0.175-0.53-0.188l-0.003-0c-0.094 0.123-0.193 0.232-0.302 0.331l-0.002 0.002c-0.115 0.096-0.216 0.202-0.302 0.317s-0.149 0.24-0.188 0.375c-0.029 0.135-0.005 0.289 0.072 0.462-0.222 0.106-0.37 0.259-0.447 0.461-0.075 0.185-0.13 0.399-0.157 0.623l-0.001 0.012-0.057 0.692c-0.020 0.23-0.082 0.437-0.189 0.62l0.318-0.217c0.038 0.019 0.068 0.048 0.086 0.085l0 0.001c0.029 0.039 0.034 0.082 0.015 0.13 0.072-0.073 0.158-0.132 0.254-0.171l0.005-0.002c0.083-0.043 0.18-0.078 0.281-0.1l0.008-0.001c0.105-0.030 0.207-0.053 0.303-0.072 0.106-0.020 0.207-0.048 0.303-0.087 0.24 0.135 0.414 0.164 0.519 0.087s0.192-0.193 0.259-0.346c0.067-0.154 0.14-0.313 0.217-0.476 0.064-0.161 0.203-0.28 0.372-0.317l0.003-0.001-0.101-0.101c0.163-0.202 0.308-0.409 0.432-0.62 0.135-0.222 0.197-0.466 0.187-0.735z"></path>
</symbol>
<symbol id="icon-pinterest" viewBox="0 0 32 32">
<path d="M16 0.64c-8.483 0-15.36 6.877-15.36 15.36s6.877 15.36 15.36 15.36 15.36-6.877 15.36-15.36-6.877-15.36-15.36-15.36zM17.051 19.64c-0.986-0.075-1.398-0.563-2.17-1.030-0.424 2.226-0.942 4.36-2.478 5.475-0.475-3.366 0.694-5.891 1.238-8.574-0.926-1.56 0.11-4.698 2.066-3.926 2.405 0.954-2.083 5.8 0.93 6.406 3.146 0.63 4.43-5.459 2.48-7.437-2.819-2.859-8.203-0.066-7.541 4.027 0.16 1 1.195 1.304 0.413 2.685-1.803-0.4-2.342-1.822-2.272-3.718 0.11-3.104 2.789-5.278 5.474-5.578 3.397-0.378 6.584 1.246 7.026 4.443 0.494 3.606-1.534 7.509-5.165 7.227z"></path>
</symbol>
<symbol id="icon-instagram" viewBox="0 0 32 32">
<path d="M20.8 16c0 2.651-2.149 4.8-4.8 4.8s-4.8-2.149-4.8-4.8v0c0-0.274 0.029-0.541 0.078-0.8h-1.678v6.395c0 0.445 0.36 0.805 0.805 0.805h11.192c0.444-0.001 0.803-0.361 0.803-0.805 0 0 0 0 0 0v0-6.395h-1.678c0.050 0.259 0.078 0.526 0.078 0.8zM16 19.2c1.767-0 3.2-1.433 3.2-3.2s-1.433-3.2-3.2-3.2c-0 0-0 0-0 0h0c-1.767 0-3.2 1.433-3.2 3.2s1.433 3.2 3.2 3.2c0 0 0 0 0 0h-0zM19.84 12.64h1.918c0 0 0 0 0 0 0.265 0 0.481-0.215 0.482-0.48v-1.918c0-0.266-0.216-0.482-0.482-0.482h-1.918c-0.266 0-0.482 0.216-0.482 0.482v0 1.918c0.002 0.264 0.218 0.48 0.482 0.48zM16 0.64c-8.483 0-15.36 6.877-15.36 15.36s6.877 15.36 15.36 15.36v0c8.483 0 15.36-6.877 15.36-15.36s-6.877-15.36-15.36-15.36v0zM24 22.222c0 0.978-0.8 1.778-1.778 1.778h-12.445c-0.978 0-1.778-0.8-1.778-1.778v-12.445c0-0.978 0.8-1.778 1.778-1.778h12.445c0.978 0 1.778 0.8 1.778 1.778v12.445z"></path>
</symbol>
<symbol id="icon-facebook" viewBox="0 0 32 32">
<path d="M16 0.64c-8.483 0-15.36 6.877-15.36 15.36s6.877 15.36 15.36 15.36 15.36-6.877 15.36-15.36-6.877-15.36-15.36-15.36zM19.638 11.254h-2.309c-0.274 0-0.578 0.36-0.578 0.838v1.667h2.888l-0.437 2.378h-2.451v7.138h-2.725v-7.138h-2.472v-2.378h2.472v-1.398c0-2.006 1.392-3.637 3.302-3.637h2.309v2.53z"></path>
</symbol>
<symbol id="icon-youtube" viewBox="0 0 32 32">
<path d="M18.565 15.733l-3.594-1.677c-0.314-0.146-0.571 0.018-0.571 0.365v3.158c0 0.347 0.258 0.51 0.571 0.365l3.592-1.677c0.315-0.147 0.315-0.387 0.002-0.534zM16 0.64c-8.483 0-15.36 6.877-15.36 15.36s6.877 15.36 15.36 15.36 15.36-6.877 15.36-15.36-6.877-15.36-15.36-15.36zM16 22.24c-7.862 0-8-0.709-8-6.24s0.138-6.24 8-6.24 8 0.709 8 6.24-0.138 6.24-8 6.24z"></path>
</symbol>
<symbol id="icon-twitter" viewBox="0 0 32 32">
<path d="M16 0.64c-8.483 0-15.36 6.877-15.36 15.36s6.877 15.36 15.36 15.36 15.36-6.877 15.36-15.36-6.877-15.36-15.36-15.36zM22.248 13.222c0.006 0.131 0.008 0.262 0.008 0.39 0 4-3.042 8.61-8.606 8.61-0.004 0-0.009 0-0.014 0-1.717 0-3.317-0.507-4.655-1.38l0.033 0.020c0.235 0.029 0.477 0.040 0.722 0.040 0.004 0 0.009 0 0.014 0 1.419 0 2.723-0.488 3.756-1.304l-0.013 0.010c-1.317-0.027-2.426-0.889-2.819-2.078l-0.006-0.021c0.171 0.034 0.367 0.053 0.568 0.053 0.284 0 0.558-0.039 0.818-0.111l-0.021 0.005c-1.394-0.289-2.427-1.507-2.427-2.966v-0.037c0.408 0.226 0.875 0.363 1.371 0.379-0.818-0.55-1.348-1.472-1.348-2.517 0-0.562 0.153-1.088 0.42-1.538l-0.008 0.014c1.499 1.833 3.715 3.031 6.214 3.162l0.021 0.001c-0.051-0.208-0.081-0.448-0.081-0.694 0-1.671 1.355-3.026 3.026-3.026 0.871 0 1.657 0.368 2.209 0.958l0.002 0.002c0.724-0.146 1.367-0.401 1.947-0.75l-0.027 0.015c-0.234 0.713-0.704 1.295-1.316 1.668l-0.013 0.008c0.645-0.079 1.232-0.248 1.776-0.494l-0.038 0.015c-0.414 0.614-0.914 1.133-1.491 1.554l-0.017 0.012z"></path>
</symbol>
</defs>
</svg>